<svg width="36" height="36" viewBox="0 0 36 36" fill="none" xmlns="http://www.w3.org/2000/svg">
<path d="M17.9985 11.0655C16.1589 11.0655 14.3948 11.7963 13.094 13.097C11.7932 14.3978 11.0625 16.162 11.0625 18.0015C11.0625 19.841 11.7932 21.6052 13.094 22.906C14.3948 24.2068 16.1589 24.9375 17.9985 24.9375C19.838 24.9375 21.6022 24.2068 22.903 22.906C24.2037 21.6052 24.9345 19.841 24.9345 18.0015C24.9345 16.162 24.2037 14.3978 22.903 13.097C21.6022 11.7963 19.838 11.0655 17.9985 11.0655ZM17.9985 22.506C16.8034 22.506 15.6573 22.0313 14.8123 21.1862C13.9672 20.3412 13.4925 19.1951 13.4925 18C13.4925 16.8049 13.9672 15.6588 14.8123 14.8138C15.6573 13.9687 16.8034 13.494 17.9985 13.494C19.1936 13.494 20.3397 13.9687 21.1847 14.8138C22.0298 15.6588 22.5045 16.8049 22.5045 18C22.5045 19.1951 22.0298 20.3412 21.1847 21.1862C20.3397 22.0313 19.1936 22.506 17.9985 22.506Z" fill="black"/>
<path d="M25.209 12.4275C26.102 12.4275 26.826 11.7036 26.826 10.8105C26.826 9.91746 26.102 9.19351 25.209 9.19351C24.3159 9.19351 23.592 9.91746 23.592 10.8105C23.592 11.7036 24.3159 12.4275 25.209 12.4275Z" fill="black"/>
<path d="M30.7995 9.16651C30.4522 8.26978 29.9216 7.45543 29.2415 6.7756C28.5614 6.09576 27.7469 5.56541 26.85 5.21851C25.8005 4.82454 24.6918 4.61152 23.571 4.58851C22.1265 4.52551 21.669 4.50751 18.006 4.50751C14.343 4.50751 13.8735 4.50751 12.441 4.58851C11.3211 4.61034 10.2131 4.82341 9.16499 5.21851C8.2679 5.56501 7.45314 6.09521 6.77299 6.7751C6.09285 7.45499 5.56233 8.26954 5.21549 9.16651C4.82145 10.2159 4.60891 11.3248 4.58699 12.4455C4.52249 13.8885 4.50299 14.346 4.50299 18.0105C4.50299 21.6735 4.50299 22.14 4.58699 23.5755C4.60949 24.6975 4.82099 25.8045 5.21549 26.856C5.56331 27.7526 6.09433 28.5669 6.77464 29.2467C7.45495 29.9265 8.26959 30.4569 9.16649 30.804C10.2126 31.2138 11.321 31.4421 12.444 31.479C13.8885 31.542 14.346 31.5615 18.009 31.5615C21.672 31.5615 22.1415 31.5615 23.574 31.479C24.6946 31.4562 25.8033 31.2437 26.853 30.8505C27.7496 30.5028 28.5639 29.972 29.2439 29.292C29.924 28.6119 30.4548 27.7976 30.8025 26.901C31.197 25.851 31.4085 24.744 31.431 23.622C31.4955 22.179 31.515 21.7215 31.515 18.057C31.515 14.3925 31.515 13.9275 31.431 12.492C31.4135 11.3554 31.1999 10.2304 30.7995 9.16651ZM28.9725 23.4645C28.9628 24.329 28.805 25.1854 28.506 25.9965C28.2807 26.5798 27.9359 27.1095 27.4936 27.5515C27.0513 27.9935 26.5214 28.3381 25.938 28.563C25.1358 28.8607 24.2885 29.0185 23.433 29.0295C22.008 29.0955 21.606 29.112 17.952 29.112C14.295 29.112 13.9215 29.112 12.4695 29.0295C11.6144 29.019 10.7675 28.8612 9.96599 28.563C9.38052 28.3395 8.84849 27.9955 8.40433 27.5534C7.96016 27.1113 7.61374 26.5809 7.38749 25.9965C7.09266 25.1941 6.93496 24.3478 6.92099 23.493C6.85649 22.068 6.84149 21.666 6.84149 18.012C6.84149 14.3565 6.84149 13.983 6.92099 12.5295C6.93069 11.6655 7.08847 10.8096 7.38749 9.99901C7.84499 8.81551 8.78249 7.88401 9.96599 7.43101C10.7679 7.13422 11.6145 6.97645 12.4695 6.96451C13.896 6.90001 14.2965 6.88201 17.952 6.88201C21.6075 6.88201 21.9825 6.88201 23.433 6.96451C24.2886 6.9748 25.136 7.13261 25.938 7.43101C26.5214 7.65642 27.0512 8.00131 27.4934 8.44355C27.9357 8.8858 28.2806 9.41562 28.506 9.99901C28.8008 10.8014 28.9585 11.6477 28.9725 12.5025C29.037 13.929 29.0535 14.3295 29.0535 17.985C29.0535 21.639 29.0535 22.032 28.989 23.466H28.9725V23.4645Z" fill="black"/>
</svg>
