<svg width="125" height="124" viewBox="0 0 125 124" fill="none" xmlns="http://www.w3.org/2000/svg">
<path d="M0.333252 62.0001C0.333252 27.7584 28.0916 0 62.3333 0V0C96.575 0 124.333 27.7584 124.333 62.0001V124H0.333252V62.0001Z" fill="#F3AFA8"/>
<path d="M32.5018 98.056L39.1 98.056L39.1 91.2279L32.5017 91.2279L32.5018 98.056ZM87.4351 42.0453C87.4351 41.5834 87.0733 41.209 86.627 41.209L79.3539 41.209C78.9076 41.209 78.5458 41.5834 78.5458 42.0453C78.5458 42.5071 78.9076 42.8816 79.3539 42.8816L85.8189 42.8815L85.8189 49.5717C85.8189 50.0335 86.1807 50.408 86.627 50.408C87.0733 50.408 87.4351 50.0335 87.4351 49.5717L87.4351 42.0453ZM36.3723 95.2332L87.1984 42.6366L86.0556 41.454L35.2294 94.0506L36.3723 95.2332Z" fill="#2D2D2D"/>
</svg>
